<svg viewBox="-14 0 423 423.34" xmlns="http://www.w3.org/2000/svg"><path d="M347.012 266.898c35.55 19.141 51.273 61.774 36.66 99.414s-54.985 58.497-94.14 48.63c-39.153-9.868-64.821-47.36-59.852-87.434 4.965-40.07 39.011-70.16 79.39-70.168a79.997 79.997 0 0 1 37.942 9.558zm0 0" fill="#6fe3ff"/><path d="M154.191 266.25c0-13.328-12.992-24.129-29.011-24.129-16.02 0-29.008 10.8-29.008 24.129s12.988 24.121 29.008 24.121 29.011-10.8 29.011-24.121zm121.98-52.05c0-13.329-12.98-24.13-29-24.13-16.023 0-29.01 10.801-29.01 24.13 0 13.331 12.987 24.12 29.01 24.12 16.02 0 29-10.8 29-24.12zm0-84.848V81.64l-121.98 30.09v47.71zm90 56.648a179.135 179.135 0 0 1-19.16 80.898c-28.44-15.296-63.292-12.003-88.363 8.356-25.07 20.36-35.445 53.789-26.308 84.766-74.504 19.78-153.332-10.067-196.047-74.235C-6.426 221.621-3.551 137.38 43.441 76.277 90.434 15.172 171.113-9.23 244.094 15.582S366.16 108.918 366.172 186zm0 0" fill="#f8ec7d"/><path d="M276.172 81.64v47.712l-121.98 30.09V111.73zm-29 108.43c16.02 0 29 10.801 29 24.13 0 13.331-12.98 24.12-29 24.12-16.024 0-29.012-10.8-29.012-24.12 0-13.321 12.988-24.13 29.012-24.13zM125.18 242.121c16.02 0 29.011 10.8 29.011 24.129s-12.992 24.121-29.011 24.121c-16.02 0-29.008-10.8-29.008-24.121s12.988-24.129 29.008-24.129zm0 0" fill="#e48e66"/><path d="M282.172 214.2V81.64a6.007 6.007 0 0 0-2.3-4.722 6.004 6.004 0 0 0-5.138-1.102l-121.98 30.09a5.996 5.996 0 0 0-4.563 5.824v131.84a38.295 38.295 0 0 0-23.011-7.453c-19.305 0-35.008 13.52-35.008 30.133s15.7 30.117 35.008 30.117c19.308 0 35.011-13.512 35.011-30.117V164.14l109.98-27.128v54.508a38.23 38.23 0 0 0-23-7.45c-19.308 0-35.01 13.516-35.01 30.13s15.698 30.12 35.01 30.12c19.31 0 35-13.511 35-30.12zM125.18 284.37c-12.688 0-23.008-8.129-23.008-18.121s10.32-18.129 23.008-18.129 23.011 8.133 23.011 18.129-10.324 18.121-23.011 18.121zm35.011-132.59v-35.35l109.98-27.13v35.352zm63.97 62.418c0-10 10.32-18.129 23.01-18.129 12.688 0 23 8.133 23 18.13 0 9.995-10.32 18.12-23 18.12-12.683 0-23.01-8.129-23.01-18.12zm0 0" fill="#63316d"/><path d="M354.832 264.52a183.878 183.878 0 0 0 17.34-78.52c0-102.559-83.442-186-186-186-102.563 0-186 83.441-186 186s83.437 186 186 186a186.923 186.923 0 0 0 42.25-4.828 86.783 86.783 0 0 0 28.707 38.71 85.246 85.246 0 0 0 51.941 17.458c38.328.004 72.035-25.36 82.649-62.188 10.61-36.832-4.43-76.238-36.887-96.632zM12.172 186c0-95.945 78.055-174 174-174 95.941 0 174 78.055 174 174a172.065 172.065 0 0 1-15.945 72.852c-29.618-13.247-64.168-8.704-89.352 11.75-25.188 20.449-36.727 53.332-29.848 85.035A174.812 174.812 0 0 1 186.172 360c-95.953 0-174-78.055-174-174zM309.07 411.34c-30.836-.008-58.437-19.137-69.27-48.008-10.831-28.875-2.62-61.437 20.602-81.723 23.227-20.289 56.598-24.046 83.75-9.433h.012c29.848 16.074 44.957 50.379 36.668 83.254-8.289 32.875-37.86 55.91-71.762 55.91zm0 0" fill="#63316d"/><path d="M342.54 345.379l-27.47 27.473V287.34a6.001 6.001 0 0 0-12 0v85.515l-27.476-27.476a5.994 5.994 0 0 0-8.45.035 5.994 5.994 0 0 0-.035 8.45l37.711 37.714c.14.14.285.274.442.399.027.023.058.043.09.066.12.102.25.195.378.285l.102.059c.133.086.266.168.406.242.024.016.047.023.07.035.153.078.301.152.458.219.02.008.039.012.054.02.164.066.328.124.5.175.02 0 .035.012.055.016.168.05.34.093.516.129.043.007.09.011.136.02.149.027.293.054.446.066.398.043.8.043 1.199 0 .144-.012.293-.04.433-.063.051-.012.102-.016.149-.023.168-.036.336-.078.5-.125.023-.008.047-.012.066-.02.168-.05.328-.11.493-.176.019-.007.039-.011.062-.02.148-.066.3-.136.441-.21.032-.016.063-.027.09-.043.133-.07.258-.149.383-.23.04-.024.082-.047.121-.075.117-.078.23-.164.34-.25.043-.035.09-.062.133-.097.148-.125.293-.258.43-.395l37.71-37.719a5.994 5.994 0 0 0-.035-8.449 5.994 5.994 0 0 0-8.449-.035zm0 0" fill="#63316d"/></svg>