<svg xmlns="http://www.w3.org/2000/svg" viewBox="0 0 123.093 173.904"><g transform="translate(-116.5 -182.154)"><path d="M179.387 186.155s27.979 27.589 43.922 62.167c12.443 26.988 12.284 45.134 12.284 50.3 0 29.512-25.764 53.436-57.546 53.436S120.5 328.134 120.5 298.623c0-12.631 2.171-25.065 14.341-50.3 16.007-33.194 44.546-62.168 44.546-62.168z" fill="#d6fcff" stroke="#90eaff" stroke-linecap="round" stroke-linejoin="round" stroke-width="8"/><ellipse cx="14" cy="10.5" rx="14" ry="10.5" transform="translate(210 318)" fill="#ffe2e2"/><ellipse cx="14" cy="10.5" rx="14" ry="10.5" transform="translate(118 318)" fill="#ffe2e2"/><path d="M164.372 330.752s2.815 3.547 13.056 3.547 13.697-3.547 13.697-3.547m-36.543-13.505s-1.707-9.2-6.907-9.2-6.675 9.2-6.675 9.2m73.682 0s-1.707-9.2-6.907-9.2-6.675 9.2-6.675 9.2" fill="none" stroke="#707070" stroke-linecap="round" stroke-width="5"/></g></svg>