<svg height="512" viewBox="0 0 64 64" width="512" xmlns="http://www.w3.org/2000/svg"><path d="M11 29a1 1 0 0 0 1 1h12a1 1 0 0 0 1-1v-3h24v-2H25v-3a1 1 0 0 0-1-1H12a1 1 0 0 0-1 1v3H7v2h4zm6-1v-6h2v6zm6 0h-2v-6h2zm-10-6h2v6h-2zm-2-12h2v2h-2zm-4 0h2v2H7zm-4 0h2v2H3zm56 0h2v2h-2zm-4 0h2v2h-2zm-2 0h-4V7a1 1 0 0 0-1-1H36a1 1 0 0 0-1 1v3H15v2h20v3a1 1 0 0 0 1 1h12a1 1 0 0 0 1-1v-3h4zM43 8v6h-2V8zm-6 0h2v6h-2zm10 6h-2V8h2zM12 38h2v2h-2zm-4 0h2v2H8zm-4 0h2v2H4zm56 0h2v2h-2zm-2 0h-8v-3a1 1 0 0 0-1-1H37a1 1 0 0 0-1 1v3H16v2h20v3a1 1 0 0 0 1 1h12a1 1 0 0 0 1-1v-3h8zm-14-2v6h-2v-6zm-6 0h2v6h-2zm10 6h-2v-6h2zM3 24h2v2H3zm56 0h2v2h-2zm-4 0h2v2h-2zm-4 0h2v2h-2zM20 58h12a1 1 0 0 0 1-1v-3h12v-2H33v-3a1 1 0 0 0-1-1H20a1 1 0 0 0-1 1v3h-9v2h9v3a1 1 0 0 0 1 1zm5-2v-6h2v6zm6 0h-2v-6h2zm-10-6h2v6h-2zM2 52h2v2H2zm4 0h2v2H6zm53 0h2v2h-2zm-4 0h2v2h-2zm-4 0h2v2h-2zm-4 0h2v2h-2z"/></svg>