<svg xmlns="http://www.w3.org/2000/svg" width="13.02" height="13.02"><path d="M6.51 9.652A3.143 3.143 0 1 0 3.367 6.51 3.145 3.145 0 0 0 6.51 9.652zm0-5.376A2.234 2.234 0 1 1 4.276 6.51 2.232 2.232 0 0 1 6.51 4.276zm.46-2.368V.46a.46.46 0 1 0-.92 0v1.448a.46.46 0 1 0 .92 0zm-.92 9.204v1.448a.46.46 0 0 0 .92 0v-1.448a.46.46 0 1 0-.92 0zm4.041-7.532l1.021-1.021a.46.46 0 1 0-.651-.651L9.44 2.929a.461.461 0 0 0 0 .651.461.461 0 0 0 .651 0zm-8.183 7.532a.45.45 0 0 0 .325.135.469.469 0 0 0 .325-.135l1.021-1.021a.46.46 0 0 0-.651-.651l-1.021 1.021a.461.461 0 0 0 .001.651zM13.02 6.51a.455.455 0 0 0-.46-.46h-1.448a.46.46 0 1 0 0 .92h1.448a.462.462 0 0 0 .46-.46zM.46 6.97h1.448a.46.46 0 1 0 0-.92H.46a.455.455 0 0 0-.46.46.462.462 0 0 0 .46.46zm10.327 4.277a.469.469 0 0 0 .326-.135.461.461 0 0 0 0-.651L10.092 9.44a.46.46 0 0 0-.651.651l1.021 1.021a.469.469 0 0 0 .325.135zM3.58 3.58a.461.461 0 0 0 0-.651L2.559 1.908a.46.46 0 0 0-.651.651L2.929 3.58a.461.461 0 0 0 .651 0z" fill="#707070"/></svg>