<svg xmlns="http://www.w3.org/2000/svg" width="12.865" height="7.59"><g fill="#707070"><path d="M.375 7.59h12.113a.377.377 0 0 0 .377-.377V4.741a.377.377 0 0 0-.234-.349 1.668 1.668 0 0 1-.292-.155 2.409 2.409 0 0 0-2.68 0 1.658 1.658 0 0 1-1.844 0 2.409 2.409 0 0 0-2.68 0 1.658 1.658 0 0 1-1.844 0 2.45 2.45 0 0 0-1.365-.406 2.45 2.45 0 0 0-1.365.406.453.453 0 0 1-.218.076.375.375 0 0 0-.343.376v2.524a.375.375 0 0 0 .375.377zm.377-2.606a1.224 1.224 0 0 0 .228-.12 1.748 1.748 0 0 1 1.894 0 2.41 2.41 0 0 0 2.68 0 1.657 1.657 0 0 1 1.844 0 2.41 2.41 0 0 0 2.68 0 1.657 1.657 0 0 1 1.844 0c.062.041.128.079.193.115v1.857H.752zm6.835-3.099a.377.377 0 1 1-.377-.377.377.377 0 0 1 .377.377zm0 0"/><path d="M9.095 3.392a.377.377 0 1 1-.377-.377.377.377 0 0 1 .377.377zm1.508-1.507a.377.377 0 1 1-.377-.377.377.377 0 0 1 .377.377zM9.095.377A.377.377 0 1 1 8.718 0a.377.377 0 0 1 .377.377zM2.687 5.302h-.779a.377.377 0 0 0 0 .754h.779a.377.377 0 1 0 0-.754zm8.294 0h-.754a.377.377 0 0 0 0 .754h.754a.377.377 0 1 0 0-.754zm-4.147 0H6.08a.377.377 0 1 0 0 .754h.754a.377.377 0 1 0 0-.754zm0 0"/></g></svg>