<svg xmlns="http://www.w3.org/2000/svg" width="12.444" height="15.859"><g fill="#707070"><path d="M12.211 5.187h-1.348a.233.233 0 1 0 0 .465h1.348a.233.233 0 0 0 0-.465zm-1.348-1.419h.612a.233.233 0 1 0 0-.465h-.612a.233.233 0 1 0 0 .465zm0-1.883h.829a.233.233 0 0 0 0-.465h-.829a.233.233 0 1 0 0 .465zm.829 7.068h-.829a.233.233 0 1 0 0 .465h.829a.233.233 0 0 0 0-.465zm-.829-1.419h.612a.233.233 0 1 0 0-.465h-.612a.233.233 0 1 0 0 .465zM3.937 5.043c.384.205.407.252.51.252a.233.233 0 0 0 .114-.435l-.4-.222.292-.119a.232.232 0 0 0-.176-.43l-.633.259-.831-.465.831-.465c.651.261.641.277.721.277a.233.233 0 0 0 .088-.447l-.291-.119.4-.222a.232.232 0 1 0-.227-.405l-.4.222.051-.311a.233.233 0 0 0-.459-.075l-.11.676-.847.474v-.971l.536-.426a.232.232 0 1 0-.289-.364l-.247.2v-.456a.233.233 0 0 0-.465 0v.454l-.247-.2a.232.232 0 1 0-.289.364l.536.426v.971l-.845-.475-.11-.676a.233.233 0 1 0-.459.075l.051.311-.4-.222a.232.232 0 1 0-.227.405l.4.222-.292.119a.232.232 0 1 0 .176.43l.633-.259.831.465-.831.465L.4 4.088a.232.232 0 0 0-.176.43l.292.119-.4.222a.233.233 0 0 0 .114.435c.1 0 .126-.047.51-.252l-.051.311a.233.233 0 1 0 .459.075l.11-.676.847-.474v.971l-.536.426a.232.232 0 1 0 .289.364l.247-.2v.454a.233.233 0 0 0 .465 0v-.454c.215.155.261.246.391.246a.233.233 0 0 0 .145-.414l-.536-.426v-.971l.847.474.11.676a.233.233 0 0 0 .459-.075zm0 0"/><path d="M9.855 9.6V2.1a2.1 2.1 0 1 0-4.2 0v7.5a3.484 3.484 0 1 0 4.2 0zm-2.1 5.8A3.019 3.019 0 0 1 6.02 9.91a.233.233 0 0 0 .1-.19V2.1a1.637 1.637 0 1 1 3.273 0v7.614a.232.232 0 0 0 .1.19 3.019 3.019 0 0 1-1.735 5.49zm0 0"/><path d="M8.77 10.057V2.102a1.017 1.017 0 1 0-2.034 0v.719a.233.233 0 0 0 .465 0v-.719a.552.552 0 1 1 1.1 0v6.884h-1.1V3.753a.233.233 0 0 0-.465 0v6.3a2.478 2.478 0 1 0 2.034 0zM7.753 14.33a2.013 2.013 0 0 1-.7-3.9.232.232 0 0 0 .151-.218V9.45h1.1v.762a.232.232 0 0 0 .151.218 2.013 2.013 0 0 1-.7 3.9zm0 0"/></g></svg>