<svg xmlns="http://www.w3.org/2000/svg" width="17.919" height="11.74"><path d="M16.577 0H1.342A1.342 1.342 0 0 0 0 1.342v9.056a1.342 1.342 0 0 0 1.342 1.342h15.235a1.342 1.342 0 0 0 1.342-1.342V1.342A1.342 1.342 0 0 0 16.577 0z" fill="#41479b"/><path d="M17.9 1.125a1.342 1.342 0 0 0-1.323-1.12h-.349L10.5 3.75V0H7.415v3.75L1.691 0h-.349A1.342 1.342 0 0 0 .019 1.125l4.891 3.2H0v3.09h4.91L.019 10.62a1.342 1.342 0 0 0 1.323 1.12h.349l5.724-3.75v3.75H10.5V7.99l5.723 3.75h.349a1.342 1.342 0 0 0 1.323-1.12l-4.887-3.205h4.91v-3.09h-4.91z" fill="#f5f5f5"/><g fill="#ff4b55"><path d="M9.886 0H8.033v4.943H0v1.854h8.033v4.943h1.853V6.797h8.033V4.943H9.886z"/><path d="M.868 11.654l6.53-4.239H6.263l-5.94 3.856a1.344 1.344 0 0 0 .545.383zm11.255-4.239h-1.135l6.325 4.105a1.348 1.348 0 0 0 .43-.458zM.142.742l5.52 3.581h1.131L.538.263a1.347 1.347 0 0 0-.396.479zm11.497 3.583L17.59.462a1.344 1.344 0 0 0-.549-.38l-6.536 4.243z"/></g></svg>